# xmcd
#
# Track frame offsets:
#	150
#	14513
#	31823
#	43358
#	60766
#	81451
#	94546
#	111174
#	125057
#	137140
#
# Disc length: 2147 seconds
#
# Revision: 1
# Processed by: cddbd v1.5.2PL0 Copyright (c) Steve Scherf et al.
# Submitted via: audiograbber 1.83.01
#
DISCID=8408610a
DTITLE=Ricky Skaggs - Highways and Heartaches
DYEAR=1982
DGENRE=Country
TTITLE0=Heartbroke
TTITLE1=You've Got A Lover
TTITLE2=Don't Think I'll Cry
TTITLE3=Don't Let Your Sweet Love Die
TTITLE4=Nothing Can Hurt You
TTITLE5=I Wouldn't Change You If I Could
TTITLE6=Can't You Hear Me Callin'
TTITLE7=Highway 40 Blues
TTITLE8=Let's Love The Bad Times Away
TTITLE9=One Way Rider
EXTD=
EXTT0=
EXTT1=
EXTT2=
EXTT3=
EXTT4=
EXTT5=
EXTT6=
EXTT7=
EXTT8=
EXTT9=
PLAYORDER=
